<svg width="89" height="9" viewBox="0 0 89 9" fill="none" xmlns="http://www.w3.org/2000/svg">
<path d="M0.779297 2.86523C0.779297 3.66211 0.957031 4.0625 1.3125 4.06641C1.375 4.06641 1.47266 4.00781 1.60547 3.89062C1.82812 3.72656 2.01562 3.63867 2.16797 3.62695C2.41797 3.62695 2.55469 3.74609 2.57812 3.98438C2.58984 4.14453 2.51562 4.26953 2.35547 4.35938C2.27344 4.40234 2.1875 4.42383 2.09766 4.42383C1.65234 4.42383 1.33008 4.39062 1.13086 4.32422C0.642578 4.16406 0.306641 3.83594 0.123047 3.33984C0.0410156 3.10938 0 2.86523 0 2.60742C0 1.86523 0.347656 1.39648 1.04297 1.20117C1.25781 1.13867 1.49219 1.10742 1.74609 1.10742H6.1875C6.61719 1.10742 6.89453 1.01758 7.01953 0.837891C7.10156 0.712891 7.14258 0.525391 7.14258 0.275391H7.38867C7.54102 0.787109 7.53906 1.125 7.38281 1.28906C7.22656 1.44922 6.9668 1.54102 6.60352 1.56445H4.38867V6.85547C4.38867 7.21484 4.41406 7.44922 4.46484 7.55859C4.51562 7.66406 4.63477 7.73633 4.82227 7.77539L5.16211 7.83984V8.08008H2.88867V7.83398L3.29297 7.74609C3.4375 7.71484 3.52734 7.66992 3.5625 7.61133C3.59375 7.54492 3.60938 7.40234 3.60938 7.18359V1.56445H1.67578C1.22266 1.56445 0.939453 1.83398 0.826172 2.37305C0.794922 2.52539 0.779297 2.68945 0.779297 2.86523ZM11.3145 3.78516C10.752 3.78516 10.2617 3.93359 9.84375 4.23047V6.85547C9.84375 7.21484 9.86914 7.44922 9.91992 7.55859C9.97461 7.66406 10.0938 7.73633 10.2773 7.77539L10.6172 7.83984V8.08008H8.40234V7.83398L8.80664 7.74609C8.95117 7.71484 9.03906 7.66992 9.07031 7.61133C9.10156 7.54492 9.11719 7.40234 9.11719 7.18359V1.25391C9.11719 0.988281 9.10742 0.830078 9.08789 0.779297C9.03711 0.634766 8.81836 0.5625 8.43164 0.5625L8.40234 0.363281L9.84375 0V3.80273C10.4961 3.43945 11.0625 3.25781 11.543 3.25781C12.1445 3.25781 12.5488 3.5293 12.7559 4.07227C12.8496 4.33008 12.8984 4.63867 12.9023 4.99805V6.86719C12.9023 7.22656 12.9277 7.46094 12.9785 7.57031C13.0332 7.67578 13.1504 7.74609 13.3301 7.78125L13.6758 7.85156V8.0918H11.4609V7.83984L11.8594 7.75781C12.0078 7.72656 12.0977 7.67969 12.1289 7.61719C12.1602 7.55078 12.1758 7.4082 12.1758 7.18945V5.18555C12.168 4.25977 11.8809 3.79297 11.3145 3.78516ZM16.4238 3.24023C17.1738 3.24023 17.6445 3.5332 17.8359 4.11914C17.9219 4.38477 17.9453 4.64453 17.9062 4.89844H15.0996C15.0488 5.17969 15.0234 5.44141 15.0234 5.68359C15.0234 6.50781 15.2695 7.07031 15.7617 7.37109C16.0234 7.53125 16.3379 7.61133 16.7051 7.61133C17.0879 7.61133 17.4727 7.4707 17.8594 7.18945L18.0293 7.36523L17.8652 7.55859C17.4199 8.02344 16.8926 8.25781 16.2832 8.26172C15.9199 8.26172 15.584 8.15234 15.2754 7.93359C14.6543 7.49219 14.3438 6.82422 14.3438 5.92969C14.3438 4.98438 14.6074 4.26758 15.1348 3.7793C15.5332 3.43164 15.9629 3.25195 16.4238 3.24023ZM15.1582 4.51758H17.1504C17.1504 4.20898 17.0801 3.98047 16.9395 3.83203C16.7988 3.67969 16.6191 3.60352 16.4004 3.60352C16.0605 3.60352 15.7832 3.70508 15.5684 3.9082C15.3535 4.10742 15.2168 4.31055 15.1582 4.51758ZM24.6738 2.83594C24.6152 1.91797 24.1777 1.45703 23.3613 1.45312C22.8809 1.45312 22.5508 1.59766 22.3711 1.88672C22.2891 2.01953 22.248 2.1875 22.248 2.39062C22.248 2.61719 22.3691 2.83984 22.6113 3.05859L22.8047 3.22852L24.1113 4.33594C24.8887 5.01172 25.2793 5.75391 25.2832 6.5625C25.2832 7.08203 25.0586 7.49805 24.6094 7.81055C24.1602 8.11914 23.6484 8.27344 23.0742 8.27344C22.707 8.27344 22.418 8.22266 22.207 8.12109C21.9961 8.01953 21.8594 7.95312 21.7969 7.92188C21.7383 7.89062 21.627 7.81641 21.4629 7.69922L21.2168 7.52344V6.47461C21.2168 6.13086 21.3379 5.87109 21.5801 5.69531C21.8223 5.51562 22.1016 5.42578 22.418 5.42578C22.7344 5.42578 22.998 5.47656 23.209 5.57812C23.416 5.68359 23.5215 5.82031 23.5254 5.98828V6C23.5254 6.16406 23.4434 6.27148 23.2793 6.32227C23.2402 6.33398 23.1992 6.33984 23.1562 6.33984C23.0156 6.33984 22.9219 6.2832 22.875 6.16992C22.832 6.05664 22.8086 5.99609 22.8047 5.98828C22.7266 5.87891 22.5723 5.82422 22.3418 5.82422C22.0098 5.82422 21.8066 5.98242 21.7324 6.29883C21.7168 6.36133 21.709 6.41992 21.709 6.47461C21.709 7.06445 21.9258 7.4707 22.3594 7.69336C22.5664 7.79883 22.8086 7.85156 23.0859 7.85156C23.7227 7.85156 24.1562 7.63672 24.3867 7.20703C24.4805 7.03125 24.5273 6.84766 24.5273 6.65625C24.5273 6.32812 24.375 5.95117 24.0703 5.52539C23.918 5.31055 23.7598 5.13672 23.5957 5.00391L22.5234 4.13672C22.0391 3.73828 21.7402 3.41992 21.627 3.18164C21.5176 2.93945 21.4629 2.7168 21.4629 2.51367C21.4629 2.04492 21.6543 1.68359 22.0371 1.42969C22.4199 1.17188 22.8711 1.04297 23.3906 1.04297C23.9883 1.04297 24.5488 1.20508 25.0723 1.5293L25.0664 2.83594H24.6738ZM28.1895 3.24023C28.9395 3.24023 29.4102 3.5332 29.6016 4.11914C29.6875 4.38477 29.7109 4.64453 29.6719 4.89844H26.8652C26.8145 5.17969 26.7891 5.44141 26.7891 5.68359C26.7891 6.50781 27.0352 7.07031 27.5273 7.37109C27.7891 7.53125 28.1035 7.61133 28.4707 7.61133C28.8535 7.61133 29.2383 7.4707 29.625 7.18945L29.7949 7.36523L29.6309 7.55859C29.1855 8.02344 28.6582 8.25781 28.0488 8.26172C27.6855 8.26172 27.3496 8.15234 27.041 7.93359C26.4199 7.49219 26.1094 6.82422 26.1094 5.92969C26.1094 4.98438 26.373 4.26758 26.9004 3.7793C27.2988 3.43164 27.7285 3.25195 28.1895 3.24023ZM26.9238 4.51758H28.916C28.916 4.20898 28.8457 3.98047 28.7051 3.83203C28.5645 3.67969 28.3848 3.60352 28.166 3.60352C27.8262 3.60352 27.5488 3.70508 27.334 3.9082C27.1191 4.10742 26.9824 4.31055 26.9238 4.51758ZM31.5879 4.34766C31.3574 4.75391 31.2422 5.23242 31.2422 5.7832C31.2422 6.33008 31.3926 6.77539 31.6934 7.11914C31.9941 7.46289 32.377 7.63672 32.8418 7.64062C33.3066 7.64062 33.7324 7.54102 34.1191 7.3418L34.3066 7.54688C34.1191 7.72656 33.9766 7.84961 33.8789 7.91602C33.5273 8.15039 33.125 8.26953 32.6719 8.27344C31.7852 8.27344 31.1621 7.89648 30.8027 7.14258C30.6113 6.74414 30.5156 6.29883 30.5156 5.80664C30.5156 4.98242 30.7656 4.33398 31.2656 3.86133C31.6914 3.45898 32.1855 3.25781 32.748 3.25781C33.3184 3.25781 33.873 3.44922 34.4121 3.83203C34.4785 3.875 34.4863 3.98047 34.4355 4.14844C34.3848 4.31641 34.2793 4.43359 34.1191 4.5C33.998 4.5 33.873 4.41016 33.7441 4.23047C33.6191 4.04688 33.5469 3.94531 33.5273 3.92578C33.3359 3.71484 33.0859 3.60742 32.7773 3.60352C32.2695 3.60352 31.873 3.85156 31.5879 4.34766ZM38.0215 4.13672L37.3828 4.06055C37.0625 4.06445 36.8008 4.22656 36.5977 4.54688C36.5273 4.66406 36.4922 4.8418 36.4922 5.08008V7.16602C36.4922 7.45508 36.6191 7.64844 36.873 7.74609C36.877 7.75 36.9473 7.77148 37.084 7.81055C37.2207 7.8457 37.2949 7.86523 37.3066 7.86914V8.08008H35.0859V7.86914C35.0977 7.86133 35.1367 7.84961 35.2031 7.83398C35.4844 7.76758 35.6641 7.66406 35.7422 7.52344C35.7812 7.44531 35.8027 7.35938 35.8066 7.26562V4.38281C35.8066 4.19531 35.707 4.08203 35.5078 4.04297C35.4492 4.03125 35.3223 4.02148 35.127 4.01367L35.0977 3.80859L36.5391 3.25781L36.5508 4.18359L36.7559 3.9668C37.1973 3.55664 37.6289 3.35156 38.0508 3.35156C38.3008 3.35156 38.4277 3.47266 38.4316 3.71484C38.4316 3.91016 38.3516 4.04102 38.1914 4.10742C38.1367 4.12695 38.0801 4.13672 38.0215 4.13672ZM40.7637 3.24023C41.5137 3.24023 41.9844 3.5332 42.1758 4.11914C42.2617 4.38477 42.2852 4.64453 42.2461 4.89844H39.4395C39.3887 5.17969 39.3633 5.44141 39.3633 5.68359C39.3633 6.50781 39.6094 7.07031 40.1016 7.37109C40.3633 7.53125 40.6777 7.61133 41.0449 7.61133C41.4277 7.61133 41.8125 7.4707 42.1992 7.18945L42.3691 7.36523L42.2051 7.55859C41.7598 8.02344 41.2324 8.25781 40.623 8.26172C40.2598 8.26172 39.9238 8.15234 39.6152 7.93359C38.9941 7.49219 38.6836 6.82422 38.6836 5.92969C38.6836 4.98438 38.9473 4.26758 39.4746 3.7793C39.873 3.43164 40.3027 3.25195 40.7637 3.24023ZM39.498 4.51758H41.4902C41.4902 4.20898 41.4199 3.98047 41.2793 3.83203C41.1387 3.67969 40.959 3.60352 40.7402 3.60352C40.4004 3.60352 40.123 3.70508 39.9082 3.9082C39.6934 4.10742 39.5566 4.31055 39.498 4.51758ZM45.4863 3.82031H44.2676V6.15234C44.2676 6.48828 44.2715 6.80469 44.2793 7.10156C44.2871 7.39453 44.332 7.5957 44.4141 7.70508C44.5 7.81055 44.623 7.86328 44.7832 7.86328C45.0684 7.86328 45.373 7.78516 45.6973 7.62891V7.94531C45.2832 8.16406 44.9297 8.27344 44.6367 8.27344C44.3594 8.27344 44.1445 8.22656 43.9922 8.13281C43.8438 8.04297 43.7344 7.92578 43.6641 7.78125C43.5977 7.63281 43.5586 7.4668 43.5469 7.2832C43.5352 7.09961 43.5293 6.91602 43.5293 6.73242V4.21875C43.5293 4.13281 43.5273 4.06641 43.5234 4.01953C43.5234 3.97266 43.5156 3.93164 43.5 3.89648C43.4883 3.86133 43.457 3.83984 43.4062 3.83203C43.3555 3.82422 43.2793 3.82031 43.1777 3.82031H42.8496V3.54492C43.2246 3.38477 43.4824 3.23047 43.623 3.08203C43.7637 2.93359 43.9141 2.67578 44.0742 2.30859H44.2676V3.38086H45.4863V3.82031ZM49.1719 6.84961V2.33789C49.1719 1.98242 49.1426 1.75 49.084 1.64062C49.0254 1.53516 48.9043 1.46289 48.7207 1.42383L48.375 1.35352V1.10742H50.8359C51.4453 1.10742 51.9199 1.25195 52.2598 1.54102C52.5996 1.83008 52.7715 2.2168 52.7754 2.70117C52.7754 3.18555 52.584 3.5957 52.2012 3.93164C52.0293 4.08398 51.8438 4.19727 51.6445 4.27148C52.1797 4.32227 52.584 4.52148 52.8574 4.86914C53.1309 5.2168 53.2676 5.65234 53.2676 6.17578C53.2676 6.70312 53.0312 7.15234 52.5586 7.52344C52.0859 7.89453 51.4004 8.08008 50.502 8.08008H48.375V7.83398L48.7148 7.76367C48.9297 7.7207 49.0586 7.63477 49.1016 7.50586C49.1484 7.37695 49.1719 7.1582 49.1719 6.84961ZM50.4551 4.45898H49.957V7.7168C50.8906 7.7168 51.5293 7.57617 51.873 7.29492C52.2168 7.01367 52.3887 6.59375 52.3887 6.03516C52.3887 5.15234 51.9688 4.64258 51.1289 4.50586C50.9414 4.47461 50.7168 4.45898 50.4551 4.45898ZM50.5312 1.4707H49.957V4.0957H50.4727C51.1602 4.0957 51.6035 3.82812 51.8027 3.29297C51.8652 3.12109 51.8965 2.9375 51.8965 2.74219C51.8887 1.89844 51.4336 1.47461 50.5312 1.4707ZM54.1523 5.83594C54.1523 5.125 54.3555 4.52344 54.7617 4.03125C55.168 3.53516 55.6621 3.28711 56.2441 3.28711C56.834 3.28711 57.3496 3.51758 57.791 3.97852C58.2324 4.43945 58.4531 5.01953 58.4531 5.71875C58.4531 6.41797 58.2617 7 57.8789 7.46484C57.4375 8 56.9297 8.26758 56.3555 8.26758C55.7422 8.27148 55.2227 8.04297 54.7969 7.58203C54.3711 7.11719 54.1562 6.53516 54.1523 5.83594ZM56.1562 3.72656C55.7422 3.72656 55.4238 3.91406 55.2012 4.28906C54.9785 4.66406 54.8672 5.13086 54.8672 5.68945C54.8672 6.24414 55.0078 6.74023 55.2891 7.17773C55.5742 7.61133 55.9492 7.83008 56.4141 7.83398C56.8477 7.83398 57.1719 7.64453 57.3867 7.26562C57.6055 6.88281 57.7148 6.43359 57.7148 5.91797C57.7148 5.36719 57.582 4.86523 57.3164 4.41211C57.0508 3.95898 56.6641 3.73047 56.1562 3.72656ZM59.1211 5.83594C59.1211 5.125 59.3242 4.52344 59.7305 4.03125C60.1367 3.53516 60.6309 3.28711 61.2129 3.28711C61.8027 3.28711 62.3184 3.51758 62.7598 3.97852C63.2012 4.43945 63.4219 5.01953 63.4219 5.71875C63.4219 6.41797 63.2305 7 62.8477 7.46484C62.4062 8 61.8984 8.26758 61.3242 8.26758C60.7109 8.27148 60.1914 8.04297 59.7656 7.58203C59.3398 7.11719 59.125 6.53516 59.1211 5.83594ZM61.125 3.72656C60.7109 3.72656 60.3926 3.91406 60.1699 4.28906C59.9473 4.66406 59.8359 5.13086 59.8359 5.68945C59.8359 6.24414 59.9766 6.74023 60.2578 7.17773C60.543 7.61133 60.918 7.83008 61.3828 7.83398C61.8164 7.83398 62.1406 7.64453 62.3555 7.26562C62.5742 6.88281 62.6836 6.43359 62.6836 5.91797C62.6836 5.36719 62.5508 4.86523 62.2852 4.41211C62.0195 3.95898 61.6328 3.73047 61.125 3.72656ZM65.5254 0V5.22656L67.0781 3.99023C67.2539 3.8418 67.2539 3.74414 67.0781 3.69727L66.8203 3.62695V3.38086H68.7012V3.62109C68.3848 3.66797 68.0625 3.79688 67.7344 4.00781L66.1934 5.12109L67.8457 6.92578C68.1895 7.29688 68.3965 7.51562 68.4668 7.58203C68.6777 7.76953 68.877 7.86328 69.0645 7.86328V8.08008H67.0312V7.86328C67.3281 7.82812 67.4688 7.74414 67.4531 7.61133C67.4453 7.56445 67.4199 7.51758 67.377 7.4707L65.5254 5.38477V6.75C65.5254 7.11719 65.5547 7.36523 65.6133 7.49414C65.6836 7.64648 65.9121 7.76953 66.2988 7.86328V8.08008H64.0898V7.86328C64.1133 7.85547 64.1973 7.83789 64.3418 7.81055C64.666 7.74414 64.8281 7.50977 64.8281 7.10742V1.19531C64.8281 0.957031 64.8125 0.808594 64.7812 0.75C64.7148 0.625 64.5039 0.5625 64.1484 0.5625L64.1191 0.375L65.5254 0ZM72 3.5918L71.9707 4.5H71.666C71.6426 4.09766 71.5215 3.83008 71.3027 3.69727C71.1699 3.61914 71.0039 3.58008 70.8047 3.58008C70.5898 3.58008 70.4258 3.64844 70.3125 3.78516C70.2031 3.91797 70.1484 4.08984 70.1484 4.30078C70.1523 4.54688 70.2949 4.78711 70.5762 5.02148L71.3496 5.69531C71.6699 5.98047 71.877 6.21875 71.9707 6.41016C72.0684 6.59766 72.1172 6.78516 72.1172 6.97266C72.1172 7.42578 71.9297 7.77344 71.5547 8.01562C71.2852 8.1875 70.9453 8.27148 70.5352 8.26758C70.1289 8.26758 69.7266 8.16406 69.3281 7.95703L69.2578 7.03125H69.5449C69.623 7.36719 69.7266 7.60156 69.8555 7.73438C69.9844 7.86328 70.2031 7.92773 70.5117 7.92773C70.8125 7.92773 71.0449 7.8418 71.209 7.66992C71.373 7.49805 71.4531 7.31836 71.4492 7.13086C71.4492 6.86914 71.2734 6.58398 70.9219 6.27539L70.1484 5.61328C69.6797 5.21484 69.4434 4.83398 69.4395 4.4707C69.4395 4.04102 69.584 3.73242 69.873 3.54492C70.166 3.35352 70.502 3.25781 70.8809 3.25781C71.2754 3.25781 71.6484 3.36914 72 3.5918ZM75.3809 3.82031H74.1621V6.15234C74.1621 6.48828 74.166 6.80469 74.1738 7.10156C74.1816 7.39453 74.2266 7.5957 74.3086 7.70508C74.3945 7.81055 74.5176 7.86328 74.6777 7.86328C74.9629 7.86328 75.2676 7.78516 75.5918 7.62891V7.94531C75.1777 8.16406 74.8242 8.27344 74.5312 8.27344C74.2539 8.27344 74.0391 8.22656 73.8867 8.13281C73.7383 8.04297 73.6289 7.92578 73.5586 7.78125C73.4922 7.63281 73.4531 7.4668 73.4414 7.2832C73.4297 7.09961 73.4238 6.91602 73.4238 6.73242V4.21875C73.4238 4.13281 73.4219 4.06641 73.418 4.01953C73.418 3.97266 73.4102 3.93164 73.3945 3.89648C73.3828 3.86133 73.3516 3.83984 73.3008 3.83203C73.25 3.82422 73.1738 3.82031 73.0723 3.82031H72.7441V3.54492C73.1191 3.38477 73.377 3.23047 73.5176 3.08203C73.6582 2.93359 73.8086 2.67578 73.9688 2.30859H74.1621V3.38086H75.3809V3.82031ZM76.125 5.83594C76.125 5.125 76.3281 4.52344 76.7344 4.03125C77.1406 3.53516 77.6348 3.28711 78.2168 3.28711C78.8066 3.28711 79.3223 3.51758 79.7637 3.97852C80.2051 4.43945 80.4258 5.01953 80.4258 5.71875C80.4258 6.41797 80.2344 7 79.8516 7.46484C79.4102 8 78.9023 8.26758 78.3281 8.26758C77.7148 8.27148 77.1953 8.04297 76.7695 7.58203C76.3438 7.11719 76.1289 6.53516 76.125 5.83594ZM78.1289 3.72656C77.7148 3.72656 77.3965 3.91406 77.1738 4.28906C76.9512 4.66406 76.8398 5.13086 76.8398 5.68945C76.8398 6.24414 76.9805 6.74023 77.2617 7.17773C77.5469 7.61133 77.9219 7.83008 78.3867 7.83398C78.8203 7.83398 79.1445 7.64453 79.3594 7.26562C79.5781 6.88281 79.6875 6.43359 79.6875 5.91797C79.6875 5.36719 79.5547 4.86523 79.2891 4.41211C79.0234 3.95898 78.6367 3.73047 78.1289 3.72656ZM84.123 4.13672L83.4844 4.06055C83.1641 4.06445 82.9023 4.22656 82.6992 4.54688C82.6289 4.66406 82.5938 4.8418 82.5938 5.08008V7.16602C82.5938 7.45508 82.7207 7.64844 82.9746 7.74609C82.9785 7.75 83.0488 7.77148 83.1855 7.81055C83.3223 7.8457 83.3965 7.86523 83.4082 7.86914V8.08008H81.1875V7.86914C81.1992 7.86133 81.2383 7.84961 81.3047 7.83398C81.5859 7.76758 81.7656 7.66406 81.8438 7.52344C81.8828 7.44531 81.9043 7.35938 81.9082 7.26562V4.38281C81.9082 4.19531 81.8086 4.08203 81.6094 4.04297C81.5508 4.03125 81.4238 4.02148 81.2285 4.01367L81.1992 3.80859L82.6406 3.25781L82.6523 4.18359L82.8574 3.9668C83.2988 3.55664 83.7305 3.35156 84.1523 3.35156C84.4023 3.35156 84.5293 3.47266 84.5332 3.71484C84.5332 3.91016 84.4531 4.04102 84.293 4.10742C84.2383 4.12695 84.1816 4.13672 84.123 4.13672ZM86.8652 3.24023C87.6152 3.24023 88.0859 3.5332 88.2773 4.11914C88.3633 4.38477 88.3867 4.64453 88.3477 4.89844H85.541C85.4902 5.17969 85.4648 5.44141 85.4648 5.68359C85.4648 6.50781 85.7109 7.07031 86.2031 7.37109C86.4648 7.53125 86.7793 7.61133 87.1465 7.61133C87.5293 7.61133 87.9141 7.4707 88.3008 7.18945L88.4707 7.36523L88.3066 7.55859C87.8613 8.02344 87.334 8.25781 86.7246 8.26172C86.3613 8.26172 86.0254 8.15234 85.7168 7.93359C85.0957 7.49219 84.7852 6.82422 84.7852 5.92969C84.7852 4.98438 85.0488 4.26758 85.5762 3.7793C85.9746 3.43164 86.4043 3.25195 86.8652 3.24023ZM85.5996 4.51758H87.5918C87.5918 4.20898 87.5215 3.98047 87.3809 3.83203C87.2402 3.67969 87.0605 3.60352 86.8418 3.60352C86.502 3.60352 86.2246 3.70508 86.0098 3.9082C85.7949 4.10742 85.6582 4.31055 85.5996 4.51758Z" fill="#622424"/>
</svg>
